inDegrees=no
DataType=double
version=3
OpenSimVersion=4.4-2022-10-11-798caa840
endheader
time	elv_angle	shoulder_elv	shoulder_rot	elbow_flexion	pro_sup	deviation	flexion
2.4020851434	0.6524611712	1.2802962065	0.4363323152	1.7402985096	0.0000000000	0.0000000000	0.0000000000
2.4062554301	0.6524611712	1.2802962065	0.4363323152	1.7402985096	0.0000000000	0.0000000000	0.0000000000
2.4104257168	0.6524611712	1.2802962065	0.4363323152	1.7402985096	0.0000000000	0.0000000000	0.0000000000
2.4145960035	0.6524611712	1.2802962065	0.4363323152	1.7402985096	0.0000000000	0.0000000000	0.0000000000
2.4187662902	0.6524611712	1.2802962065	0.4363323152	1.7402985096	0.0000000000	0.0000000000	0.0000000000
2.4229365769	0.6524611712	1.2802962065	0.4363323152	1.7402985096	0.0000000000	0.0000000000	0.0000000000
2.4271068636	0.6524611712	1.2802962065	0.4363323152	1.7402985096	0.0000000000	0.0000000000	0.0000000000
2.4312771503	0.6524611712	1.2802962065	0.4363323152	1.7402985096	0.0000000000	0.0000000000	0.0000000000
2.4354474370	0.6524611712	1.2802962065	0.4363323152	1.7402985096	0.0000000000	0.0000000000	0.0000000000
2.4396177237	0.6524611712	1.2802962065	0.4363323152	1.7402985096	0.0000000000	0.0000000000	0.0000000000
2.4437880104	0.6524611712	1.2802962065	0.4363323152	1.7402985096	0.0000000000	0.0000000000	0.0000000000
2.4479582971	0.6524611712	1.2802962065	0.4363323152	1.7402985096	0.0000000000	0.0000000000	0.0000000000
2.4521285838	0.6524611712	1.2802962065	0.4363323152	1.7402985096	0.0000000000	0.0000000000	0.0000000000
2.4562988705	0.6524611712	1.2802962065	0.4363323152	1.7402985096	0.0000000000	0.0000000000	0.0000000000
2.4604691573	0.6524611712	1.2802962065	0.4363323152	1.7402985096	0.0000000000	0.0000000000	0.0000000000
2.4646394440	0.6524611712	1.2802962065	0.4363323152	1.7402985096	0.0000000000	0.0000000000	0.0000000000
2.4688097307	0.6524611712	1.2802962065	0.4363323152	1.7402985096	0.0000000000	0.0000000000	0.0000000000
2.4729800174	0.6524611712	1.2802962065	0.4363323152	1.7402985096	0.0000000000	0.0000000000	0.0000000000
2.4771503041	0.6524611712	1.2802962065	0.4363323152	1.7402985096	0.0000000000	0.0000000000	0.0000000000
2.4813205908	0.6524611712	1.2802962065	0.4363323152	1.7402985096	0.0000000000	0.0000000000	0.0000000000
2.4854908775	0.6524611712	1.2802962065	0.4363323152	1.7402985096	0.0000000000	0.0000000000	0.0000000000
2.4896611642	0.6524611712	1.2802962065	0.4363323152	1.7402985096	0.0000000000	0.0000000000	0.0000000000
2.4938314509	0.6524611712	1.2802962065	0.4363323152	1.7402985096	0.0000000000	0.0000000000	0.0000000000
2.4980017376	0.6524611712	1.2802962065	0.4363323152	1.7402985096	0.0000000000	0.0000000000	0.0000000000
2.5021720243	0.6524611712	1.2802962065	0.4363323152	1.7402985096	0.0000000000	0.0000000000	0.0000000000
2.5063423110	0.6524611712	1.2802962065	0.4363323152	1.7402985096	0.0000000000	0.0000000000	0.0000000000
2.5105125977	0.6524611712	1.2802962065	0.4363323152	1.7402985096	0.0000000000	0.0000000000	0.0000000000
2.5146828844	0.6524611712	1.2802962065	0.4363323152	1.7402985096	0.0000000000	0.0000000000	0.0000000000
2.5188531712	0.6524611712	1.2802962065	0.4363323152	1.7402985096	0.0000000000	0.0000000000	0.0000000000
2.5230234579	0.6524611712	1.2802962065	0.4363323152	1.7402985096	0.0000000000	0.0000000000	0.0000000000
2.5271937446	0.6524611712	1.2802962065	0.4363323152	1.7402985096	0.0000000000	0.0000000000	0.0000000000
2.5313640313	0.6524611712	1.2802962065	0.4363323152	1.7402985096	0.0000000000	0.0000000000	0.0000000000
2.5355343180	0.6524611712	1.2802962065	0.4363323152	1.7402985096	0.0000000000	0.0000000000	0.0000000000
2.5397046047	0.6524611712	1.2802962065	0.4363323152	1.7402985096	0.0000000000	0.0000000000	0.0000000000
2.5438748914	0.6524611712	1.2802962065	0.4363323152	1.7402985096	0.0000000000	0.0000000000	0.0000000000
2.5480451781	0.6524611712	1.2802962065	0.4363323152	1.7402985096	0.0000000000	0.0000000000	0.0000000000
2.5522154648	0.6524611712	1.2802962065	0.4363323152	1.7402985096	0.0000000000	0.0000000000	0.0000000000
2.5563857515	0.6524611712	1.2802962065	0.4363323152	1.7402985096	0.0000000000	0.0000000000	0.0000000000
2.5605560382	0.6524611712	1.2802962065	0.4363323152	1.7402985096	0.0000000000	0.0000000000	0.0000000000
2.5647263249	0.6524611712	1.2802962065	0.4363323152	1.7402985096	0.0000000000	0.0000000000	0.0000000000
2.5688966116	0.6524611712	1.2802962065	0.4363323152	1.7402985096	0.0000000000	0.0000000000	0.0000000000
2.5730668983	0.6524611712	1.2802962065	0.4363323152	1.7402985096	0.0000000000	0.0000000000	0.0000000000
2.5772371851	0.6524611712	1.2802962065	0.4363323152	1.7402985096	0.0000000000	0.0000000000	0.0000000000
2.5814074718	0.6524611712	1.2802962065	0.4363323152	1.7402985096	0.0000000000	0.0000000000	0.0000000000
2.5855777585	0.6524611712	1.2802962065	0.4363323152	1.7402985096	0.0000000000	0.0000000000	0.0000000000
2.5897480452	0.6524611712	1.2802962065	0.4363323152	1.7402985096	0.0000000000	0.0000000000	0.0000000000
2.5939183319	0.6524611712	1.2802962065	0.4363323152	1.7402985096	0.0000000000	0.0000000000	0.0000000000
2.5980886186	0.6524611712	1.2802962065	0.4363323152	1.7402985096	0.0000000000	0.0000000000	0.0000000000
2.6022589053	0.6524611712	1.2802962065	0.4363323152	1.7402985096	0.0000000000	0.0000000000	0.0000000000
2.6064291920	0.6524611712	1.2802962065	0.4363323152	1.7402985096	0.0000000000	0.0000000000	0.0000000000
2.6105994787	0.6524611712	1.2802962065	0.4363323152	1.7402985096	0.0000000000	0.0000000000	0.0000000000
2.6147697654	0.6524611712	1.2802962065	0.4363323152	1.7402985096	0.0000000000	0.0000000000	0.0000000000
2.6189400521	0.6524611712	1.2802962065	0.4363323152	1.7402985096	0.0000000000	0.0000000000	0.0000000000
2.6231103388	0.6524611712	1.2802962065	0.4363323152	1.7402985096	0.0000000000	0.0000000000	0.0000000000
2.6272806255	0.6524611712	1.2802962065	0.4363323152	1.7402985096	0.0000000000	0.0000000000	0.0000000000
2.6314509123	0.6524611712	1.2802962065	0.4363323152	1.7402985096	0.0000000000	0.0000000000	0.0000000000
2.6356211990	0.6524611712	1.2802962065	0.4363323152	1.7402985096	0.0000000000	0.0000000000	0.0000000000
2.6397914857	0.6524611712	1.2802962065	0.4363323152	1.7402985096	0.0000000000	0.0000000000	0.0000000000
2.6439617724	0.6524611712	1.2802962065	0.4363323152	1.7402985096	0.0000000000	0.0000000000	0.0000000000
2.6481320591	0.6524611712	1.2802962065	0.4363323152	1.7402985096	0.0000000000	0.0000000000	0.0000000000
2.6523023458	0.6524611712	1.2802962065	0.4363323152	1.7402985096	0.0000000000	0.0000000000	0.0000000000
2.6564726325	0.6524619460	1.2802957296	0.4363323152	1.7402975559	0.0000000000	0.0000000000	0.0000000000
2.6606429192	0.6524670720	1.2802929878	0.4363323152	1.7402908802	0.0000000000	0.0000000000	0.0000000000
2.6648132059	0.6524808407	1.2802853584	0.4363323152	1.7402735949	0.0000000000	0.0000000000	0.0000000000
2.6689834926	0.6525073051	1.2802710533	0.4363323152	1.7402402163	0.0000000000	0.0000000000	0.0000000000
2.6731537793	0.6525501013	1.2802475691	0.4363323152	1.7401860952	0.0000000000	0.0000000000	0.0000000000
2.6773240660	0.6526129842	1.2802132368	0.4363323152	1.7401067019	0.0000000000	0.0000000000	0.0000000000
